<?xml version="1.0" standalone="no"?>
<!DOCTYPE svg PUBLIC "-//W3C//DTD SVG 20010904//EN"
 "http://www.w3.org/TR/2001/REC-SVG-20010904/DTD/svg10.dtd">
<svg version="1.0" xmlns="http://www.w3.org/2000/svg"
 width="59.000000pt" height="59.000000pt" viewBox="0 0 59.000000 59.000000"
 preserveAspectRatio="xMidYMid meet">
<metadata>
Created by potrace 1.13, written by Peter Selinger 2001-2015
</metadata>
<g transform="translate(0.000000,59.000000) scale(0.100000,-0.100000)"
fill="#000000" stroke="none">
<path d="M61 556 c-46 -25 -50 -48 -51 -249 0 -269 -2 -267 228 -267 l146 0
-62 63 c-54 55 -62 67 -62 100 0 25 -8 49 -25 71 -14 18 -25 43 -25 54 0 17 6
22 25 22 22 0 25 4 25 35 0 47 29 75 77 75 34 0 47 -9 140 -102 l103 -103 0
117 c0 198 0 198 -287 198 -153 -1 -214 -4 -232 -14z"/>
</g>
</svg>
